<svg xmlns="http://www.w3.org/2000/svg" xmlns:xlink="http://www.w3.org/1999/xlink" width="500" zoomAndPan="magnify" viewBox="0 0 375 374.999991" height="500" preserveAspectRatio="xMidYMid meet" version="1.0"><path fill="#ff3131" d="M 328.367188 367.644531 L 270.132812 367.644531 L 270.132812 383.625 L 375 383.625 L 375 322.453125 L 368.40625 339.984375 C 362.179688 356.527344 346.089844 367.644531 328.367188 367.644531 Z M 328.367188 367.644531 " fill-opacity="1" fill-rule="nonzero"/><path fill="#ff3131" d="M 334.730469 179.941406 C 325.332031 174.320312 319.492188 164.039062 319.492188 153.109375 C 319.492188 148.835938 320.320312 144.753906 321.953125 140.976562 C 329.855469 122.695312 331.449219 102.984375 326.441406 85.480469 C 321.796875 69.238281 311.800781 56.351562 299.019531 50.128906 C 280.421875 41.078125 254.882812 45.589844 239.613281 60.621094 C 222.84375 77.132812 222.078125 104.339844 226.957031 124.292969 C 232.613281 147.421875 245.800781 165.300781 260.5625 169.835938 C 270.15625 172.785156 282.105469 170.332031 295.113281 162.742188 C 296.582031 161.886719 298.464844 162.382812 299.320312 163.847656 C 300.171875 165.3125 299.679688 167.195312 298.210938 168.050781 C 292.394531 171.445312 286.726562 173.886719 281.289062 175.394531 L 288.878906 192.363281 C 289.574219 193.914062 288.878906 195.730469 287.328125 196.421875 C 286.921875 196.605469 286.496094 196.691406 286.078125 196.691406 C 284.902344 196.691406 283.78125 196.015625 283.269531 194.871094 L 275.457031 177.410156 C 257.234375 186.398438 243.507812 202.472656 237.5625 221.949219 L 225.175781 262.511719 C 222.816406 270.242188 215.785156 275.433594 207.683594 275.433594 L 176.398438 275.433594 C 166.871094 275.433594 159.121094 283.15625 159.121094 292.648438 C 159.121094 302.136719 166.871094 309.859375 176.398438 309.859375 L 224.300781 309.859375 C 237.84375 309.859375 250.257812 301.941406 255.933594 289.691406 L 263.003906 274.417969 C 262.167969 270.253906 261.296875 266.101562 260.363281 261.972656 C 257.835938 250.824219 254.894531 239.609375 251.625 228.636719 C 251.140625 227.011719 252.066406 225.296875 253.691406 224.8125 C 255.320312 224.324219 257.03125 225.25 257.515625 226.878906 C 260.828125 237.980469 263.800781 249.332031 266.355469 260.613281 C 270.84375 280.40625 274.183594 300.683594 276.328125 320.921875 L 307.414062 320.921875 C 314.957031 320.921875 321.605469 315.859375 323.589844 308.613281 L 341.804688 242.039062 C 342.253906 240.402344 343.941406 239.4375 345.582031 239.886719 C 347.21875 240.335938 348.183594 242.023438 347.734375 243.664062 L 329.519531 310.238281 C 326.804688 320.148438 317.71875 327.070312 307.414062 327.070312 L 261.507812 327.070312 C 251.980469 327.070312 244.230469 334.792969 244.230469 344.28125 C 244.230469 353.773438 251.980469 361.492188 261.507812 361.492188 L 328.367188 361.492188 C 343.546875 361.492188 357.324219 351.980469 362.648438 337.816406 L 375 304.996094 L 375 250.828125 C 375 221.957031 359.570312 194.796875 334.730469 179.941406 Z M 334.730469 179.941406 " fill-opacity="1" fill-rule="nonzero"/><path fill="#ff3131" d="M 137.882812 314.652344 C 140.265625 311.316406 141.203125 307.253906 140.523438 303.21875 L 124.632812 208.636719 C 123.371094 201.132812 116.820312 195.804688 109.425781 195.804688 C 104.601562 196.191406 100.40625 198.347656 96.835938 202.273438 C 94.457031 205.613281 93.519531 209.671875 94.199219 213.710938 L 110.089844 308.292969 C 111.492188 316.652344 119.464844 322.3125 127.855469 320.914062 C 131.929688 320.230469 135.492188 318.007812 137.882812 314.652344 Z M 137.882812 314.652344 " fill-opacity="1" fill-rule="nonzero"/><path fill="#ff3131" d="M 135.386719 87.683594 C 120.117188 72.648438 94.582031 68.136719 75.980469 77.191406 C 51.683594 89.015625 35.8125 126.660156 52.542969 166.851562 C 54.507812 171.574219 55.507812 176.503906 55.507812 181.5 C 55.507812 191.628906 51.339844 201.503906 44.070312 208.585938 C 16.0625 235.875 0 273.914062 0 312.953125 L 0 383.625 L 124.34375 383.625 L 124.34375 373.980469 C 117.261719 379.628906 108.554688 382.648438 97.96875 382.621094 C 88.527344 381.683594 79.820312 376.828125 74.078125 369.296875 L 24.085938 303.730469 C 23.054688 302.378906 23.316406 300.449219 24.664062 299.421875 C 26.015625 298.390625 27.945312 298.652344 28.972656 300.003906 L 78.96875 365.570312 C 83.75 371.839844 90.710938 375.722656 98.578125 376.503906 C 106.445312 377.28125 114.050781 374.84375 119.984375 369.628906 L 144.371094 348.179688 C 150.824219 342.503906 152.09375 332.835938 147.316406 325.699219 C 145.765625 323.378906 143.710938 321.507812 141.304688 320.183594 C 137.296875 324.351562 132.175781 327.007812 125.296875 327.273438 C 122.472656 327.273438 119.742188 326.714844 117.21875 325.691406 L 106.796875 334.003906 L 114.144531 344.347656 C 115.128906 345.730469 114.804688 347.648438 113.417969 348.632812 C 112.878906 349.015625 112.257812 349.203125 111.640625 349.203125 C 110.679688 349.203125 109.734375 348.753906 109.132812 347.910156 L 46.226562 259.386719 C 45.246094 258.003906 45.570312 256.085938 46.953125 255.101562 C 48.335938 254.117188 50.253906 254.441406 51.238281 255.824219 L 103.230469 328.984375 L 111.574219 322.332031 C 107.703125 319.148438 104.921875 314.621094 104.027344 309.308594 L 88.136719 214.730469 C 87.359375 210.109375 88.09375 205.472656 90.203125 201.378906 C 85.847656 199.871094 81.355469 197.773438 76.789062 195.109375 C 75.320312 194.257812 74.828125 192.375 75.683594 190.90625 C 76.539062 189.441406 78.417969 188.945312 79.886719 189.800781 C 84.734375 192.628906 89.464844 194.757812 93.96875 196.148438 C 97.148438 192.886719 101.269531 190.71875 105.855469 189.953125 C 111.625 188.992188 117.25 190.421875 121.710938 193.511719 C 135.527344 184.851562 146.722656 164.445312 149.855469 141.882812 C 152.953125 119.542969 147.683594 99.789062 135.386719 87.683594 Z M 135.386719 87.683594 " fill-opacity="1" fill-rule="nonzero"/><path fill="#ff3131" d="M 178.019531 142.84375 C 176.832031 151.46875 174.421875 159.875 170.859375 167.828125 C 170.164062 169.375 170.859375 171.195312 172.40625 171.890625 C 172.816406 172.070312 173.242188 172.160156 173.664062 172.160156 C 174.835938 172.160156 175.957031 171.480469 176.46875 170.339844 C 180.273438 161.855469 182.84375 152.886719 184.109375 143.683594 C 185.328125 134.84375 185.328125 125.875 184.109375 117.027344 C 183.878906 115.347656 182.332031 114.167969 180.644531 114.402344 C 178.964844 114.632812 177.789062 116.183594 178.019531 117.867188 C 179.160156 126.15625 179.160156 134.5625 178.019531 142.84375 Z M 178.019531 142.84375 " fill-opacity="1" fill-rule="nonzero"/><path fill="#ff3131" d="M 163 160.957031 C 163.300781 161.050781 163.601562 161.09375 163.898438 161.09375 C 165.214844 161.09375 166.433594 160.242188 166.835938 158.917969 C 168.355469 153.949219 169.484375 148.824219 170.191406 143.683594 C 171.058594 137.394531 171.308594 130.988281 170.9375 124.644531 C 170.839844 122.949219 169.375 121.652344 167.691406 121.753906 C 165.996094 121.855469 164.703125 123.308594 164.800781 125.003906 C 165.148438 130.949219 164.914062 136.953125 164.101562 142.847656 C 163.4375 147.664062 162.382812 152.464844 160.957031 157.121094 C 160.460938 158.746094 161.375 160.464844 163 160.957031 Z M 163 160.957031 " fill-opacity="1" fill-rule="nonzero"/></svg>