<svg xmlns="http://www.w3.org/2000/svg" xmlns:xlink="http://www.w3.org/1999/xlink" width="500" zoomAndPan="magnify" viewBox="0 0 375 374.999991" height="500" preserveAspectRatio="xMidYMid meet" version="1.0"><defs><clipPath id="e928efe65a"><path d="M 229 46 L 366.992188 46 L 366.992188 156 L 229 156 Z M 229 46 " clip-rule="nonzero"/></clipPath><clipPath id="906a33c2c7"><path d="M 7.742188 26.460938 L 146 26.460938 L 146 135 L 7.742188 135 Z M 7.742188 26.460938 " clip-rule="nonzero"/></clipPath></defs><path fill="#ff3131" d="M 229.601562 235.148438 C 232.46875 223.46875 233.523438 211.003906 232.738281 198.085938 C 231.609375 179.511719 227.914062 165.234375 221.4375 154.441406 C 212.523438 139.582031 198.234375 132.046875 178.960938 132.046875 C 159.6875 132.046875 145.394531 139.582031 136.480469 154.441406 C 130.003906 165.234375 126.308594 179.511719 125.179688 198.085938 C 124.398438 211 125.453125 223.46875 128.320312 235.148438 C 130.164062 242.660156 132.449219 248.730469 134.925781 252.699219 C 139.957031 260.277344 146.472656 266.382812 154.558594 270.933594 C 162.582031 275.644531 171.015625 278.132812 178.960938 278.132812 C 186.0625 278.132812 193.582031 276.105469 200.796875 272.339844 L 196.035156 272.339844 C 188.761719 272.339844 182.84375 266.421875 182.84375 259.148438 C 182.84375 251.875 188.761719 245.957031 196.035156 245.957031 L 226.261719 245.957031 C 227.480469 242.835938 228.601562 239.214844 229.601562 235.148438 Z M 229.601562 235.148438 " fill-opacity="1" fill-rule="nonzero"/><path fill="#ff3131" d="M 120.128906 188.351562 L 114.410156 188.351562 C 108.210938 188.640625 103.363281 193.632812 103.363281 199.746094 L 103.363281 234.546875 C 103.363281 240.839844 108.570312 245.957031 114.96875 245.957031 L 125.363281 245.957031 C 124.367188 243.132812 123.441406 240 122.59375 236.550781 C 119.585938 224.296875 118.480469 211.234375 119.296875 197.726562 C 119.496094 194.480469 119.777344 191.363281 120.128906 188.351562 Z M 120.128906 188.351562 " fill-opacity="1" fill-rule="nonzero"/><path fill="#ff3131" d="M 188.738281 259.148438 C 188.738281 263.171875 192.011719 266.445312 196.035156 266.445312 L 203.332031 266.445312 L 203.332031 251.851562 L 196.035156 251.851562 C 192.011719 251.851562 188.738281 255.125 188.738281 259.148438 Z M 188.738281 259.148438 " fill-opacity="1" fill-rule="nonzero"/><path fill="#ff3131" d="M 110.285156 183.074219 C 111.542969 182.730469 112.863281 182.519531 114.222656 182.460938 C 114.265625 182.460938 114.304688 182.457031 114.347656 182.457031 L 120.945312 182.457031 C 122.929688 170.054688 126.390625 159.808594 131.425781 151.410156 C 141.480469 134.648438 157.472656 126.152344 178.960938 126.152344 C 200.445312 126.152344 216.441406 134.648438 226.492188 151.410156 C 231.53125 159.808594 234.988281 170.058594 236.976562 182.457031 L 243.570312 182.457031 C 243.613281 182.457031 243.652344 182.460938 243.695312 182.460938 C 245.054688 182.519531 246.375 182.730469 247.632812 183.074219 C 241.535156 135.800781 218.449219 111.835938 178.957031 111.835938 C 139.46875 111.835938 116.386719 135.800781 110.285156 183.074219 Z M 110.285156 183.074219 " fill-opacity="1" fill-rule="nonzero"/><path fill="#ff3131" d="M 244.238281 322.453125 L 217.953125 303.511719 C 209.515625 297.429688 204.023438 288.140625 202.683594 278.027344 C 196.066406 281.378906 187.988281 284.023438 178.960938 284.023438 C 171.1875 284.023438 163.0625 281.953125 155.238281 278.007812 C 153.902344 288.128906 148.410156 297.425781 139.96875 303.511719 L 113.683594 322.453125 C 93.058594 337.320312 80.4375 360.890625 79.519531 385.96875 L 278.402344 385.96875 C 277.480469 360.890625 264.859375 337.320312 244.238281 322.453125 Z M 244.238281 322.453125 " fill-opacity="1" fill-rule="nonzero"/><path fill="#ff3131" d="M 254.558594 234.550781 L 254.558594 199.746094 C 254.558594 193.632812 249.710938 188.640625 243.507812 188.351562 L 237.789062 188.351562 C 238.140625 191.363281 238.421875 194.480469 238.621094 197.730469 C 239.441406 211.238281 238.332031 224.296875 235.324219 236.550781 C 234.484375 239.976562 233.554688 243.121094 232.546875 245.957031 L 242.949219 245.957031 C 249.351562 245.957031 254.558594 240.839844 254.558594 234.550781 Z M 254.558594 234.550781 " fill-opacity="1" fill-rule="nonzero"/><path fill="#ff3131" d="M 237.484375 259.148438 C 237.484375 255.125 234.210938 251.851562 230.183594 251.851562 L 209.226562 251.851562 L 209.226562 266.449219 L 230.183594 266.449219 C 234.207031 266.445312 237.484375 263.171875 237.484375 259.148438 Z M 237.484375 259.148438 " fill-opacity="1" fill-rule="nonzero"/><g clip-path="url(#e928efe65a)"><path fill="#ff3131" d="M 298.484375 46.953125 C 260.566406 46.953125 229.714844 67.078125 229.714844 91.816406 C 229.714844 111.78125 250.324219 129.53125 279.835938 134.980469 C 281.230469 135.242188 282.242188 136.453125 282.246094 137.871094 C 282.257812 142.140625 281.792969 146.398438 280.867188 150.515625 C 280.511719 152.109375 280.082031 153.695312 279.582031 155.257812 C 283.640625 153.425781 288.675781 150.21875 292.6875 144.71875 C 294.089844 142.796875 295.285156 140.6875 296.246094 138.453125 C 296.710938 137.375 297.769531 136.675781 298.941406 136.667969 C 336.609375 136.507812 367.25 116.386719 367.25 91.816406 C 367.25 67.078125 336.402344 46.953125 298.484375 46.953125 Z M 298.484375 46.953125 " fill-opacity="1" fill-rule="nonzero"/></g><g clip-path="url(#906a33c2c7)"><path fill="#ff3131" d="M 95.410156 134.769531 C 94.914062 133.203125 94.484375 131.621094 94.125 130.027344 C 93.199219 125.90625 92.738281 121.652344 92.75 117.382812 C 92.753906 115.964844 93.765625 114.75 95.160156 114.492188 C 124.667969 109.042969 145.277344 91.292969 145.277344 71.324219 C 145.277344 46.585938 114.429688 26.460938 76.511719 26.460938 C 38.59375 26.460938 7.742188 46.585938 7.742188 71.324219 C 7.742188 95.894531 38.386719 116.019531 76.054688 116.179688 C 77.226562 116.1875 78.285156 116.886719 78.746094 117.964844 C 79.707031 120.199219 80.90625 122.308594 82.308594 124.226562 C 86.316406 129.730469 91.355469 132.933594 95.410156 134.769531 Z M 95.410156 134.769531 " fill-opacity="1" fill-rule="nonzero"/></g></svg>