<svg xmlns="http://www.w3.org/2000/svg" xmlns:xlink="http://www.w3.org/1999/xlink" width="500" zoomAndPan="magnify" viewBox="0 0 375 374.999991" height="500" preserveAspectRatio="xMidYMid meet" version="1.0"><defs><clipPath id="4ffd416e9d"><path d="M 6.023438 139 L 175 139 L 175 146 L 6.023438 146 Z M 6.023438 139 " clip-rule="nonzero"/></clipPath><clipPath id="3c3cb5ef2c"><path d="M 6.023438 209 L 165 209 L 165 216 L 6.023438 216 Z M 6.023438 209 " clip-rule="nonzero"/></clipPath><clipPath id="be2e9ebbdb"><path d="M 284 45.796875 L 367 45.796875 L 367 137 L 284 137 Z M 284 45.796875 " clip-rule="nonzero"/></clipPath><clipPath id="2ffd3706b9"><path d="M 201 160 L 335 160 L 335 360.046875 L 201 360.046875 Z M 201 160 " clip-rule="nonzero"/></clipPath></defs><path fill="#ff3131" d="M 60.957031 61.128906 L 265.589844 61.128906 C 267.195312 61.128906 268.5 59.824219 268.5 58.21875 C 268.5 56.609375 267.195312 55.308594 265.589844 55.308594 L 60.957031 55.308594 C 59.351562 55.308594 58.046875 56.609375 58.046875 58.21875 C 58.046875 59.824219 59.351562 61.128906 60.957031 61.128906 Z M 60.957031 61.128906 " fill-opacity="1" fill-rule="nonzero"/><path fill="#ff3131" d="M 185.257812 103.765625 C 185.257812 102.15625 183.957031 100.855469 182.347656 100.855469 L 78.296875 100.855469 C 76.691406 100.855469 75.386719 102.15625 75.386719 103.765625 C 75.386719 105.371094 76.691406 106.675781 78.296875 106.675781 L 182.347656 106.675781 C 183.957031 106.675781 185.257812 105.371094 185.257812 103.765625 Z M 185.257812 103.765625 " fill-opacity="1" fill-rule="nonzero"/><g clip-path="url(#4ffd416e9d)"><path fill="#ff3131" d="M 8.929688 145.214844 L 171.945312 145.214844 C 173.550781 145.214844 174.855469 143.910156 174.855469 142.304688 C 174.855469 140.695312 173.550781 139.394531 171.945312 139.394531 L 8.929688 139.394531 C 7.324219 139.394531 6.023438 140.695312 6.023438 142.304688 C 6.023438 143.910156 7.324219 145.214844 8.929688 145.214844 Z M 8.929688 145.214844 " fill-opacity="1" fill-rule="nonzero"/></g><path fill="#ff3131" d="M 29.742188 174.429688 C 28.132812 174.429688 26.832031 175.730469 26.832031 177.339844 C 26.832031 178.945312 28.132812 180.25 29.742188 180.25 L 154.601562 180.25 C 156.210938 180.25 157.511719 178.945312 157.511719 177.339844 C 157.511719 175.730469 156.210938 174.429688 154.601562 174.429688 Z M 29.742188 174.429688 " fill-opacity="1" fill-rule="nonzero"/><g clip-path="url(#3c3cb5ef2c)"><path fill="#ff3131" d="M 164.449219 212.375 C 164.449219 210.769531 163.144531 209.464844 161.539062 209.464844 L 8.929688 209.464844 C 7.324219 209.464844 6.023438 210.769531 6.023438 212.375 C 6.023438 213.984375 7.324219 215.285156 8.929688 215.285156 L 161.539062 215.285156 C 163.144531 215.285156 164.449219 213.984375 164.449219 212.375 Z M 164.449219 212.375 " fill-opacity="1" fill-rule="nonzero"/></g><path fill="#ff3131" d="M 181.789062 240.402344 C 181.789062 238.796875 180.488281 237.492188 178.878906 237.492188 L 12.398438 237.492188 C 10.792969 237.492188 9.492188 238.796875 9.492188 240.402344 C 9.492188 242.011719 10.792969 243.3125 12.398438 243.3125 L 178.882812 243.3125 C 180.488281 243.3125 181.789062 242.011719 181.789062 240.402344 Z M 181.789062 240.402344 " fill-opacity="1" fill-rule="nonzero"/><path fill="#ff3131" d="M 182.347656 272.53125 L 64.425781 272.53125 C 62.816406 272.53125 61.515625 273.832031 61.515625 275.4375 C 61.515625 277.046875 62.816406 278.347656 64.425781 278.347656 L 182.347656 278.347656 C 183.957031 278.347656 185.257812 277.046875 185.257812 275.4375 C 185.257812 273.832031 183.957031 272.53125 182.347656 272.53125 Z M 182.347656 272.53125 " fill-opacity="1" fill-rule="nonzero"/><path fill="#ff3131" d="M 133.792969 311.070312 L 36.679688 311.070312 C 35.070312 311.070312 33.769531 312.371094 33.769531 313.980469 C 33.769531 315.585938 35.070312 316.890625 36.679688 316.890625 L 133.792969 316.890625 C 135.398438 316.890625 136.703125 315.585938 136.703125 313.980469 C 136.703125 312.371094 135.398438 311.070312 133.792969 311.070312 Z M 133.792969 311.070312 " fill-opacity="1" fill-rule="nonzero"/><path fill="#ff3131" d="M 204.257812 212.589844 L 241.621094 147.804688 C 243.90625 138.355469 249.757812 130.132812 257.753906 124.871094 L 247 118.355469 C 244.492188 116.832031 241.546875 116.390625 238.710938 117.097656 C 235.847656 117.8125 233.433594 119.617188 231.917969 122.175781 L 224.824219 134.117188 C 222.503906 138.019531 218.816406 140.773438 214.4375 141.867188 C 213.085938 142.207031 211.71875 142.371094 210.359375 142.371094 C 207.34375 142.371094 204.371094 141.546875 201.71875 139.941406 L 195.34375 136.078125 L 175.429688 169.605469 C 167.386719 183.144531 171.746094 200.769531 185.144531 208.890625 C 190.914062 212.390625 197.65625 213.683594 204.257812 212.589844 Z M 204.257812 212.589844 " fill-opacity="1" fill-rule="nonzero"/><path fill="#ff3131" d="M 300.476562 183.746094 C 298.882812 183.863281 297.484375 182.652344 297.371094 181.046875 L 296.363281 166.8125 C 290.734375 163.496094 284.917969 160.386719 279.039062 157.582031 C 274.292969 155.316406 269.398438 153.1875 264.496094 151.261719 C 263 150.671875 262.265625 148.984375 262.851562 147.488281 C 263.441406 145.992188 265.132812 145.257812 266.625 145.84375 C 271.65625 147.824219 276.675781 150.003906 281.546875 152.328125 C 286.382812 154.636719 291.179688 157.136719 295.867188 159.792969 L 295.492188 154.460938 C 284.398438 144.230469 273.160156 135.425781 261.636719 129.292969 C 254.394531 133.792969 249.105469 141.117188 247.171875 149.570312 C 243.71875 164.683594 251.40625 180.183594 265.453125 186.425781 L 308.199219 205.425781 C 311.082031 206.707031 314.234375 206.421875 316.851562 204.644531 C 319.484375 202.855469 320.980469 199.871094 320.847656 196.660156 L 318.652344 143.472656 C 317.660156 137.367188 314.398438 134.84375 309.628906 134.703125 C 307.121094 134.703125 304.789062 135.722656 303.0625 137.570312 C 301.304688 139.457031 300.4375 141.921875 300.621094 144.507812 L 303.175781 180.636719 C 303.289062 182.242188 302.082031 183.632812 300.476562 183.746094 Z M 300.476562 183.746094 " fill-opacity="1" fill-rule="nonzero"/><path fill="#ff3131" d="M 291.457031 129.316406 C 287.722656 126.117188 283.664062 123.273438 279.375 120.84375 L 268.292969 125.984375 C 277.617188 131.074219 286.414062 137.605469 294.832031 145.164062 L 294.816406 144.921875 C 294.570312 141.4375 295.566406 137.984375 297.558594 135.164062 C 295.628906 133.105469 293.585938 131.144531 291.457031 129.316406 Z M 291.457031 129.316406 " fill-opacity="1" fill-rule="nonzero"/><g clip-path="url(#be2e9ebbdb)"><path fill="#ff3131" d="M 360.375 59.960938 C 353.804688 51.175781 342.078125 45.855469 330.707031 45.855469 C 327.695312 45.855469 324.710938 46.230469 321.851562 47.011719 C 303.132812 52.121094 290.101562 73.929688 291.539062 97.738281 C 291.972656 104.910156 289.414062 111.863281 284.519531 116.808594 C 288.210938 118.695312 291.769531 121.5 295.246094 124.898438 C 297.527344 126.855469 299.714844 128.953125 301.777344 131.15625 C 304.105469 129.6875 306.792969 128.882812 309.628906 128.882812 C 315.007812 128.882812 319.714844 131.738281 322.324219 136.058594 C 325.296875 136.507812 328.1875 136.472656 330.9375 135.941406 C 343.222656 133.574219 355.925781 120.492188 362.539062 103.390625 C 369.007812 86.664062 368.199219 70.429688 360.375 59.960938 Z M 360.375 59.960938 " fill-opacity="1" fill-rule="nonzero"/></g><g clip-path="url(#2ffd3706b9)"><path fill="#ff3131" d="M 327.054688 269.164062 C 326.007812 257.515625 317.796875 247.648438 306.628906 244.609375 L 237.078125 225.695312 C 235.527344 225.273438 234.613281 223.671875 235.035156 222.121094 C 235.457031 220.570312 237.054688 219.65625 238.605469 220.078125 L 271.503906 229.023438 L 284.542969 201.28125 L 263.085938 191.742188 C 250.460938 186.132812 242.191406 174.1875 240.757812 160.945312 L 206.488281 220.371094 C 200.265625 231.160156 199.65625 243.855469 204.816406 255.203125 C 209.910156 266.394531 219.691406 274.164062 231.65625 276.515625 L 289.4375 287.863281 C 297.523438 289.453125 303.503906 296.074219 304.324219 304.339844 L 308.699219 348.546875 C 309.351562 355.144531 314.785156 360.117188 321.332031 360.117188 C 324.914062 360.117188 328.222656 358.65625 330.652344 355.996094 C 333.09375 353.328125 334.304688 349.71875 333.980469 346.097656 Z M 327.054688 269.164062 " fill-opacity="1" fill-rule="nonzero"/></g><path fill="#ff3131" d="M 213.605469 274.910156 L 199.566406 303.273438 C 196.535156 309.398438 191.382812 314.140625 185.054688 316.625 L 144.828125 332.429688 C 138.882812 334.765625 135.871094 341.582031 138.113281 347.625 C 139.359375 350.867188 141.507812 353.167969 144.488281 354.59375 C 147.371094 355.863281 150.566406 355.914062 153.488281 354.734375 L 201.484375 335.339844 C 205.753906 333.617188 209.429688 330.480469 211.832031 326.511719 L 237.761719 283.644531 L 230.535156 282.226562 C 224.285156 280.996094 218.558594 278.480469 213.605469 274.910156 Z M 213.605469 274.910156 " fill-opacity="1" fill-rule="nonzero"/><path fill="#ff3131" d="M 257.074219 87.6875 C 250.617188 83.777344 243.035156 82.625 235.730469 84.453125 C 228.367188 86.292969 222.164062 90.925781 218.257812 97.503906 L 198.316406 131.074219 L 204.734375 134.964844 C 207.246094 136.484375 210.1875 136.929688 213.027344 136.222656 C 215.886719 135.507812 218.300781 133.703125 219.820312 131.144531 L 226.914062 119.203125 C 229.230469 115.300781 232.917969 112.546875 237.296875 111.453125 C 241.652344 110.363281 246.167969 111.046875 250.015625 113.378906 L 263.695312 121.667969 L 270.082031 118.800781 C 272.894531 106.753906 267.671875 94.113281 257.074219 87.6875 Z M 257.074219 87.6875 " fill-opacity="1" fill-rule="nonzero"/></svg>