<svg xmlns="http://www.w3.org/2000/svg" xmlns:xlink="http://www.w3.org/1999/xlink" width="500" zoomAndPan="magnify" viewBox="0 0 375 374.999991" height="500" preserveAspectRatio="xMidYMid meet" version="1.0"><defs><clipPath id="3bc159781b"><path d="M 211 40 L 320.464844 40 L 320.464844 120 L 211 120 Z M 211 40 " clip-rule="nonzero"/></clipPath><clipPath id="763982b206"><path d="M 57 81 L 207 81 L 207 371.25 L 57 371.25 Z M 57 81 " clip-rule="nonzero"/></clipPath></defs><path fill="#ff3131" d="M 272.617188 116.265625 L 261.183594 127.695312 L 224.257812 127.695312 C 224.261719 127.707031 224.269531 127.714844 224.273438 127.722656 C 225.613281 130.558594 226.082031 133.652344 225.695312 136.6875 L 235.886719 136.6875 L 235.886719 141.730469 L 231.183594 141.730469 L 231.183594 204.929688 L 260.09375 204.929688 L 260.09375 141.734375 L 255.386719 141.734375 L 255.386719 136.691406 L 281.609375 136.691406 L 281.609375 110.71875 L 272.617188 110.71875 Z M 272.617188 116.265625 " fill-opacity="1" fill-rule="nonzero"/><g clip-path="url(#3bc159781b)"><path fill="#ff3131" d="M 261.679688 64.648438 L 261.679688 58.976562 C 261.679688 57.648438 261.277344 56.414062 260.589844 55.394531 C 263.824219 52.296875 268.3125 51.402344 270.640625 51.140625 C 271.523438 51.039062 272.1875 50.300781 272.1875 49.410156 L 272.1875 45.632812 C 272.1875 44.933594 271.765625 44.300781 271.121094 44.027344 L 262.929688 40.578125 C 262.714844 40.488281 262.484375 40.441406 262.253906 40.441406 L 224.347656 40.441406 C 223.605469 40.441406 222.945312 40.914062 222.703125 41.617188 L 218.9375 52.542969 L 217.433594 52.542969 C 213.882812 52.542969 211.003906 55.421875 211.003906 58.976562 L 211.003906 113.433594 C 211.003906 116.984375 213.882812 119.863281 217.433594 119.863281 L 255.253906 119.863281 C 258.804688 119.863281 261.683594 116.984375 261.683594 113.433594 L 261.683594 102.636719 L 266.660156 102.636719 L 270.847656 106.082031 L 320.300781 106.082031 L 320.300781 61.203125 L 270.847656 61.203125 L 266.660156 64.652344 L 261.679688 64.652344 Z M 241.722656 52.503906 L 226.339844 52.503906 L 226.339844 48.679688 L 241.722656 48.679688 Z M 313.226562 65.453125 L 315.914062 65.453125 L 315.914062 82.511719 L 313.226562 82.511719 Z M 313.226562 85.703125 L 315.914062 85.703125 L 315.914062 88.101562 L 313.226562 88.101562 Z M 313.226562 85.703125 " fill-opacity="1" fill-rule="nonzero"/></g><path fill="#ff3131" d="M 269.335938 220.5625 L 269.335938 211.488281 L 219.414062 211.488281 L 219.414062 220.5625 L 224.828125 220.5625 L 202.238281 282.34375 L 195.398438 301.046875 L 169.96875 370.582031 L 178.542969 370.582031 L 203.972656 301.046875 L 210.8125 282.34375 L 233.402344 220.5625 L 240.339844 220.5625 L 240.339844 370.582031 L 248.40625 370.582031 L 248.40625 220.5625 L 255.347656 220.5625 L 277.9375 282.34375 L 281.960938 293.34375 L 310.203125 370.582031 L 318.777344 370.582031 L 263.921875 220.5625 Z M 269.335938 220.5625 " fill-opacity="1" fill-rule="nonzero"/><g clip-path="url(#763982b206)"><path fill="#ff3131" d="M 96.164062 112.625 C 99.257812 108.859375 103.832031 106.703125 108.710938 106.703125 C 112.457031 106.703125 116.117188 108.011719 119.015625 110.394531 L 135.476562 123.929688 C 135.585938 123.167969 135.65625 122.402344 135.722656 121.636719 L 160.601562 129.871094 C 161.789062 130.265625 163.019531 130.460938 164.246094 130.460938 C 166.257812 130.460938 168.261719 129.933594 170.042969 128.90625 L 206.367188 107.9375 L 206.367188 81.15625 L 162.953125 106.214844 L 143.226562 99.683594 C 136.917969 99 131.011719 96.976562 125.78125 93.910156 L 121.265625 92.414062 C 120.496094 92.160156 119.71875 91.992188 118.945312 91.90625 C 118.507812 91.78125 118.089844 91.628906 117.640625 91.53125 C 102.324219 88.296875 79.925781 96.152344 70.480469 120.070312 C 57.703125 153.03125 54.726562 174.402344 58.800781 210.429688 C 62.738281 230.125 75.015625 236.3125 87.894531 237.976562 L 98.355469 284.785156 L 93.007812 350.875 C 92.15625 361.421875 100.011719 370.667969 110.5625 371.519531 C 111.089844 371.5625 111.609375 371.582031 112.128906 371.582031 C 122.011719 371.582031 130.398438 363.988281 131.207031 353.96875 L 136.789062 284.984375 C 136.945312 283.066406 136.8125 281.136719 136.390625 279.257812 L 123.171875 220.109375 C 123.242188 218.179688 123.222656 216.058594 123.105469 213.695312 C 120.785156 196.230469 123.5625 176.859375 127.257812 159.214844 L 98.390625 135.480469 C 91.476562 129.792969 90.476562 119.539062 96.164062 112.625 Z M 96.164062 112.625 " fill-opacity="1" fill-rule="nonzero"/></g><path fill="#ff3131" d="M 204.644531 124.171875 L 156.253906 147.019531 L 116.070312 113.980469 C 111.125 109.914062 103.816406 110.625 99.746094 115.574219 C 95.675781 120.523438 96.390625 127.828125 101.335938 131.898438 L 147.195312 169.605469 C 149.3125 171.347656 151.925781 172.246094 154.5625 172.246094 C 156.242188 172.246094 157.933594 171.878906 159.511719 171.132812 L 214.542969 145.148438 C 220.335938 142.414062 222.816406 135.5 220.078125 129.710938 C 217.347656 123.914062 210.4375 121.4375 204.644531 124.171875 Z M 204.644531 124.171875 " fill-opacity="1" fill-rule="nonzero"/><path fill="#ff3131" d="M 175.945312 27.902344 C 176.859375 28.816406 177.726562 29.773438 178.546875 30.773438 C 179.367188 31.773438 180.136719 32.8125 180.855469 33.886719 C 181.574219 34.960938 182.238281 36.070312 182.847656 37.210938 C 183.457031 38.351562 184.011719 39.519531 184.503906 40.714844 C 185 41.910156 185.433594 43.125 185.808594 44.363281 C 186.1875 45.597656 186.5 46.851562 186.753906 48.121094 C 187.003906 49.390625 187.195312 50.667969 187.320312 51.953125 C 187.449219 53.242188 187.511719 54.53125 187.511719 55.824219 C 187.511719 57.117188 187.449219 58.40625 187.320312 59.695312 C 187.195312 60.980469 187.003906 62.257812 186.753906 63.527344 C 186.5 64.796875 186.1875 66.050781 185.8125 67.285156 C 185.433594 68.523438 185 69.742188 184.503906 70.933594 C 184.011719 72.128906 183.457031 73.296875 182.847656 74.4375 C 182.238281 75.578125 181.574219 76.6875 180.855469 77.761719 C 180.136719 78.835938 179.367188 79.875 178.546875 80.875 C 177.726562 81.875 176.859375 82.832031 175.945312 83.746094 C 175.03125 84.660156 174.074219 85.527344 173.074219 86.347656 C 172.074219 87.167969 171.039062 87.9375 169.960938 88.65625 C 168.886719 89.375 167.78125 90.039062 166.640625 90.648438 C 165.5 91.257812 164.332031 91.8125 163.136719 92.304688 C 161.941406 92.800781 160.726562 93.234375 159.488281 93.613281 C 158.25 93.988281 156.996094 94.300781 155.726562 94.554688 C 154.460938 94.804688 153.183594 94.996094 151.894531 95.121094 C 150.609375 95.25 149.316406 95.3125 148.023438 95.3125 C 146.730469 95.3125 145.441406 95.25 144.15625 95.121094 C 142.867188 94.996094 141.589844 94.804688 140.320312 94.554688 C 139.054688 94.300781 137.800781 93.988281 136.5625 93.613281 C 135.324219 93.238281 134.109375 92.800781 132.914062 92.304688 C 131.71875 91.8125 130.550781 91.257812 129.410156 90.648438 C 128.269531 90.039062 127.164062 89.375 126.085938 88.65625 C 125.011719 87.9375 123.972656 87.167969 122.976562 86.347656 C 121.976562 85.527344 121.019531 84.660156 120.101562 83.746094 C 119.1875 82.832031 118.320312 81.875 117.5 80.875 C 116.679688 79.875 115.910156 78.839844 115.191406 77.761719 C 114.472656 76.6875 113.808594 75.582031 113.199219 74.441406 C 112.589844 73.300781 112.039062 72.132812 111.542969 70.9375 C 111.046875 69.742188 110.613281 68.527344 110.238281 67.289062 C 109.863281 66.050781 109.546875 64.796875 109.296875 63.527344 C 109.042969 62.261719 108.855469 60.984375 108.726562 59.695312 C 108.601562 58.410156 108.539062 57.117188 108.539062 55.824219 C 108.539062 54.53125 108.601562 53.242188 108.726562 51.957031 C 108.855469 50.667969 109.042969 49.390625 109.296875 48.121094 C 109.546875 46.855469 109.863281 45.601562 110.238281 44.363281 C 110.613281 43.125 111.046875 41.910156 111.542969 40.714844 C 112.039062 39.519531 112.589844 38.351562 113.199219 37.210938 C 113.808594 36.070312 114.472656 34.964844 115.191406 33.886719 C 115.910156 32.8125 116.679688 31.773438 117.5 30.777344 C 118.320312 29.777344 119.1875 28.820312 120.101562 27.902344 C 121.015625 26.988281 121.972656 26.121094 122.972656 25.300781 C 123.972656 24.480469 125.011719 23.710938 126.085938 22.992188 C 127.160156 22.273438 128.269531 21.609375 129.410156 21 C 130.550781 20.390625 131.71875 19.839844 132.914062 19.34375 C 134.109375 18.847656 135.324219 18.414062 136.5625 18.039062 C 137.796875 17.664062 139.050781 17.347656 140.320312 17.097656 C 141.589844 16.84375 142.867188 16.65625 144.152344 16.527344 C 145.441406 16.402344 146.730469 16.339844 148.023438 16.339844 C 149.316406 16.339844 150.605469 16.402344 151.894531 16.527344 C 153.179688 16.65625 154.457031 16.84375 155.726562 17.097656 C 156.996094 17.347656 158.25 17.664062 159.484375 18.039062 C 160.722656 18.414062 161.941406 18.847656 163.132812 19.34375 C 164.328125 19.839844 165.496094 20.390625 166.636719 21 C 167.777344 21.609375 168.886719 22.273438 169.960938 22.992188 C 171.035156 23.710938 172.074219 24.480469 173.074219 25.300781 C 174.074219 26.121094 175.03125 26.988281 175.945312 27.902344 Z M 175.945312 27.902344 " fill-opacity="1" fill-rule="nonzero"/></svg>