<svg xmlns="http://www.w3.org/2000/svg" xmlns:xlink="http://www.w3.org/1999/xlink" width="500" zoomAndPan="magnify" viewBox="0 0 375 374.999991" height="500" preserveAspectRatio="xMidYMid meet" version="1.0"><defs><clipPath id="09e9da92eb"><path d="M 34 4.910156 L 341 4.910156 L 341 370.160156 L 34 370.160156 Z M 34 4.910156 " clip-rule="nonzero"/></clipPath></defs><g clip-path="url(#09e9da92eb)"><path fill="#ff3131" d="M 320.390625 145.785156 L 339.96875 111.875 C 341.597656 109.058594 340.632812 105.457031 337.816406 103.828125 L 265.453125 62.050781 C 254.988281 28.964844 224 4.910156 187.496094 4.910156 C 150.992188 4.910156 120.003906 28.964844 109.539062 62.050781 L 37.175781 103.832031 C 34.359375 105.457031 33.394531 109.058594 35.023438 111.875 L 54.601562 145.785156 L 35.023438 179.699219 C 33.394531 182.515625 34.359375 186.117188 37.175781 187.742188 L 55.511719 198.328125 L 55.511719 291.390625 C 55.511719 293.492188 56.632812 295.4375 58.457031 296.488281 L 184.550781 369.289062 C 185.460938 369.816406 186.480469 370.078125 187.496094 370.078125 C 188.511719 370.078125 189.53125 369.816406 190.441406 369.289062 L 316.535156 296.488281 C 318.359375 295.4375 319.480469 293.492188 319.480469 291.386719 L 319.480469 198.328125 L 337.816406 187.742188 C 340.632812 186.117188 341.597656 182.511719 339.96875 179.695312 Z M 187.496094 211.785156 L 73.179688 145.785156 L 113.925781 122.261719 C 127.183594 149.542969 155.179688 168.398438 187.496094 168.398438 C 219.8125 168.398438 247.808594 149.542969 261.066406 122.261719 L 301.8125 145.785156 Z M 326.824219 111.085938 L 311.4375 137.738281 L 265.472656 111.203125 C 267.917969 103.449219 269.238281 95.203125 269.238281 86.65625 C 269.238281 83.574219 269.0625 80.535156 268.730469 77.542969 Z M 187.496094 16.691406 C 226.074219 16.691406 257.460938 48.078125 257.460938 86.65625 C 257.460938 125.230469 226.074219 156.617188 187.496094 156.617188 C 148.917969 156.617188 117.53125 125.230469 117.53125 86.65625 C 117.53125 48.078125 148.917969 16.691406 187.496094 16.691406 Z M 106.265625 77.542969 C 105.929688 80.535156 105.753906 83.574219 105.753906 86.65625 C 105.753906 95.203125 107.074219 103.449219 109.519531 111.203125 L 63.554688 137.738281 L 48.167969 111.085938 Z M 63.554688 153.832031 L 179.449219 220.742188 L 164.0625 247.398438 L 48.167969 180.484375 Z M 67.289062 205.128906 L 163.273438 260.542969 C 164.175781 261.066406 165.191406 261.332031 166.21875 261.332031 C 166.726562 261.332031 167.242188 261.265625 167.742188 261.132812 C 169.25 260.726562 170.535156 259.742188 171.316406 258.386719 L 181.605469 240.570312 L 181.605469 353.988281 L 67.289062 287.988281 Z M 307.703125 287.988281 L 193.386719 353.988281 L 193.386719 240.570312 L 203.675781 258.386719 C 204.453125 259.742188 205.742188 260.726562 207.25 261.132812 C 207.75 261.269531 208.265625 261.332031 208.773438 261.332031 C 209.800781 261.332031 210.816406 261.066406 211.71875 260.542969 L 307.703125 205.128906 Z M 210.929688 247.398438 L 195.542969 220.742188 L 311.4375 153.832031 L 326.824219 180.484375 Z M 165.4375 121.402344 C 168.78125 124.742188 173.167969 126.414062 177.558594 126.414062 C 181.945312 126.414062 186.335938 124.742188 189.675781 121.402344 C 199.125 111.953125 208.65625 102.285156 217.875 92.9375 C 223.421875 87.308594 228.972656 81.679688 234.535156 76.066406 C 241.171875 69.367188 241.136719 58.511719 234.457031 51.871094 C 231.222656 48.65625 226.9375 46.886719 222.378906 46.886719 C 222.355469 46.886719 222.335938 46.886719 222.3125 46.886719 C 217.738281 46.902344 213.445312 48.703125 210.230469 51.949219 L 177.511719 84.996094 L 164.75 72.230469 C 158.066406 65.550781 147.191406 65.550781 140.507812 72.234375 C 137.273438 75.46875 135.488281 79.773438 135.488281 84.351562 C 135.488281 88.933594 137.273438 93.234375 140.507812 96.472656 Z M 148.839844 80.5625 C 149.882812 79.515625 151.257812 78.992188 152.628906 78.992188 C 154 78.992188 155.375 79.515625 156.421875 80.5625 L 173.367188 97.511719 C 174.472656 98.613281 175.972656 99.234375 177.535156 99.234375 C 177.539062 99.234375 177.542969 99.234375 177.546875 99.234375 C 179.113281 99.230469 180.617188 98.605469 181.71875 97.488281 L 218.601562 60.238281 C 219.601562 59.230469 220.933594 58.671875 222.359375 58.664062 C 222.363281 58.664062 222.371094 58.664062 222.378906 58.664062 C 223.800781 58.664062 225.140625 59.21875 226.148438 60.21875 C 228.234375 62.292969 228.242188 65.679688 226.167969 67.773438 C 220.597656 73.394531 215.042969 79.03125 209.488281 84.664062 C 200.285156 94 190.769531 103.652344 181.347656 113.070312 C 179.257812 115.160156 175.859375 115.160156 173.769531 113.070312 L 148.839844 88.140625 C 147.828125 87.128906 147.269531 85.785156 147.269531 84.351562 C 147.269531 82.921875 147.824219 81.574219 148.839844 80.5625 Z M 148.839844 80.5625 " fill-opacity="1" fill-rule="nonzero"/></g></svg>