<svg xmlns="http://www.w3.org/2000/svg" xmlns:xlink="http://www.w3.org/1999/xlink" width="500" zoomAndPan="magnify" viewBox="0 0 375 374.999991" height="500" preserveAspectRatio="xMidYMid meet" version="1.0"><defs><clipPath id="9935b53308"><path d="M 2.015625 112.113281 L 371.765625 112.113281 L 371.765625 369.363281 L 2.015625 369.363281 Z M 2.015625 112.113281 " clip-rule="nonzero"/></clipPath><clipPath id="15c1b027a6"><path d="M 189 52 L 311 52 L 311 87 L 189 87 Z M 189 52 " clip-rule="nonzero"/></clipPath><clipPath id="9aa545929f"><path d="M 106.65625 51.332031 L 225.347656 -40.386719 L 317.066406 78.308594 L 198.375 170.023438 Z M 106.65625 51.332031 " clip-rule="nonzero"/></clipPath><clipPath id="3fcab25507"><path d="M 106.65625 51.332031 L 225.347656 -40.386719 L 317.066406 78.308594 L 198.375 170.023438 Z M 106.65625 51.332031 " clip-rule="nonzero"/></clipPath><clipPath id="e629ba4a4e"><path d="M 156 48 L 179 48 L 179 70 L 156 70 Z M 156 48 " clip-rule="nonzero"/></clipPath><clipPath id="0615640638"><path d="M 106.65625 51.332031 L 225.347656 -40.386719 L 317.066406 78.308594 L 198.375 170.023438 Z M 106.65625 51.332031 " clip-rule="nonzero"/></clipPath><clipPath id="323f5e0b6d"><path d="M 106.65625 51.332031 L 225.347656 -40.386719 L 317.066406 78.308594 L 198.375 170.023438 Z M 106.65625 51.332031 " clip-rule="nonzero"/></clipPath><clipPath id="527d82242b"><path d="M 159 82 L 168 82 L 168 103 L 159 103 Z M 159 82 " clip-rule="nonzero"/></clipPath><clipPath id="6b9b1f9180"><path d="M 106.65625 51.332031 L 225.347656 -40.386719 L 317.066406 78.308594 L 198.375 170.023438 Z M 106.65625 51.332031 " clip-rule="nonzero"/></clipPath><clipPath id="186d49e414"><path d="M 106.65625 51.332031 L 225.347656 -40.386719 L 317.066406 78.308594 L 198.375 170.023438 Z M 106.65625 51.332031 " clip-rule="nonzero"/></clipPath><clipPath id="19d5be7ced"><path d="M 167 16 L 176 16 L 176 37 L 167 37 Z M 167 16 " clip-rule="nonzero"/></clipPath><clipPath id="ef4d95fb54"><path d="M 106.65625 51.332031 L 225.347656 -40.386719 L 317.066406 78.308594 L 198.375 170.023438 Z M 106.65625 51.332031 " clip-rule="nonzero"/></clipPath><clipPath id="7521deecee"><path d="M 106.65625 51.332031 L 225.347656 -40.386719 L 317.066406 78.308594 L 198.375 170.023438 Z M 106.65625 51.332031 " clip-rule="nonzero"/></clipPath><clipPath id="5e935184cf"><path d="M 124 50 L 145 50 L 145 60 L 124 60 Z M 124 50 " clip-rule="nonzero"/></clipPath><clipPath id="197d8dbe6e"><path d="M 106.65625 51.332031 L 225.347656 -40.386719 L 317.066406 78.308594 L 198.375 170.023438 Z M 106.65625 51.332031 " clip-rule="nonzero"/></clipPath><clipPath id="580e7a734e"><path d="M 106.65625 51.332031 L 225.347656 -40.386719 L 317.066406 78.308594 L 198.375 170.023438 Z M 106.65625 51.332031 " clip-rule="nonzero"/></clipPath><clipPath id="a88ca59ce7"><path d="M 132 72 L 150 72 L 150 87 L 132 87 Z M 132 72 " clip-rule="nonzero"/></clipPath><clipPath id="06ff87fe93"><path d="M 106.65625 51.332031 L 225.347656 -40.386719 L 317.066406 78.308594 L 198.375 170.023438 Z M 106.65625 51.332031 " clip-rule="nonzero"/></clipPath><clipPath id="d1de833eeb"><path d="M 106.65625 51.332031 L 225.347656 -40.386719 L 317.066406 78.308594 L 198.375 170.023438 Z M 106.65625 51.332031 " clip-rule="nonzero"/></clipPath><clipPath id="d2fc097cca"><path d="M 185 31 L 203 31 L 203 47 L 185 47 Z M 185 31 " clip-rule="nonzero"/></clipPath><clipPath id="29453cf87d"><path d="M 106.65625 51.332031 L 225.347656 -40.386719 L 317.066406 78.308594 L 198.375 170.023438 Z M 106.65625 51.332031 " clip-rule="nonzero"/></clipPath><clipPath id="fe02a2d8bb"><path d="M 106.65625 51.332031 L 225.347656 -40.386719 L 317.066406 78.308594 L 198.375 170.023438 Z M 106.65625 51.332031 " clip-rule="nonzero"/></clipPath><clipPath id="70ff6e9f20"><path d="M 139 24 L 155 24 L 155 42 L 139 42 Z M 139 24 " clip-rule="nonzero"/></clipPath><clipPath id="c1524c0f0c"><path d="M 106.65625 51.332031 L 225.347656 -40.386719 L 317.066406 78.308594 L 198.375 170.023438 Z M 106.65625 51.332031 " clip-rule="nonzero"/></clipPath><clipPath id="db6fd71a0b"><path d="M 106.65625 51.332031 L 225.347656 -40.386719 L 317.066406 78.308594 L 198.375 170.023438 Z M 106.65625 51.332031 " clip-rule="nonzero"/></clipPath><clipPath id="4af8984cdb"><path d="M 180 76 L 196 76 L 196 95 L 180 95 Z M 180 76 " clip-rule="nonzero"/></clipPath><clipPath id="e7cbfb6be1"><path d="M 106.65625 51.332031 L 225.347656 -40.386719 L 317.066406 78.308594 L 198.375 170.023438 Z M 106.65625 51.332031 " clip-rule="nonzero"/></clipPath><clipPath id="98e6fc1322"><path d="M 106.65625 51.332031 L 225.347656 -40.386719 L 317.066406 78.308594 L 198.375 170.023438 Z M 106.65625 51.332031 " clip-rule="nonzero"/></clipPath></defs><path fill="#ff3131" d="M 203.632812 186.683594 L 266.214844 186.683594 L 266.214844 191.105469 C 266.214844 194.09375 268.640625 196.515625 271.628906 196.515625 C 274.617188 196.515625 277.039062 194.09375 277.039062 191.105469 L 277.039062 186.683594 L 289.054688 186.683594 C 292.046875 186.683594 294.46875 184.261719 294.46875 181.269531 C 294.46875 178.28125 292.046875 175.859375 289.054688 175.859375 L 277.039062 175.859375 L 277.039062 171.4375 C 277.039062 168.445312 274.617188 166.023438 271.628906 166.023438 C 268.640625 166.023438 266.214844 168.445312 266.214844 171.4375 L 266.214844 175.859375 L 203.632812 175.859375 C 200.644531 175.859375 198.222656 178.28125 198.222656 181.269531 C 198.222656 184.261719 200.644531 186.683594 203.632812 186.683594 Z M 203.632812 186.683594 " fill-opacity="1" fill-rule="nonzero"/><path fill="#ff3131" d="M 203.632812 223.285156 L 219.699219 223.285156 L 219.699219 227.707031 C 219.699219 230.695312 222.125 233.117188 225.113281 233.117188 C 228.101562 233.117188 230.523438 230.695312 230.523438 227.707031 L 230.523438 223.285156 L 289.054688 223.285156 C 292.046875 223.285156 294.46875 220.863281 294.46875 217.871094 C 294.46875 214.882812 292.046875 212.460938 289.054688 212.460938 L 230.523438 212.460938 L 230.523438 208.019531 C 230.523438 205.027344 228.101562 202.605469 225.113281 202.605469 C 222.125 202.605469 219.699219 205.027344 219.699219 208.019531 L 219.699219 212.460938 L 203.632812 212.460938 C 200.644531 212.460938 198.222656 214.882812 198.222656 217.871094 C 198.222656 220.863281 200.644531 223.285156 203.632812 223.285156 Z M 203.632812 223.285156 " fill-opacity="1" fill-rule="nonzero"/><path fill="#ff3131" d="M 203.632812 259.867188 L 246.539062 259.867188 L 246.539062 264.308594 C 246.539062 267.296875 248.960938 269.722656 251.949219 269.722656 C 254.9375 269.722656 257.363281 267.296875 257.363281 264.308594 L 257.363281 259.867188 L 289.054688 259.867188 C 292.046875 259.867188 294.46875 257.445312 294.46875 254.453125 C 294.46875 251.464844 292.046875 249.042969 289.054688 249.042969 L 257.363281 249.042969 L 257.363281 244.621094 C 257.363281 241.628906 254.9375 239.207031 251.949219 239.207031 C 248.960938 239.207031 246.539062 241.628906 246.539062 244.621094 L 246.539062 249.042969 L 203.632812 249.042969 C 200.644531 249.042969 198.222656 251.464844 198.222656 254.453125 C 198.222656 257.445312 200.644531 259.867188 203.632812 259.867188 Z M 203.632812 259.867188 " fill-opacity="1" fill-rule="nonzero"/><path fill="#ff3131" d="M 77.199219 273.554688 L 175.121094 273.554688 C 178.109375 273.554688 180.53125 271.132812 180.53125 268.144531 L 180.53125 170.476562 C 180.53125 167.488281 178.109375 165.066406 175.121094 165.066406 L 77.199219 165.066406 C 74.210938 165.066406 71.789062 167.488281 71.789062 170.476562 L 71.789062 268.144531 C 71.789062 271.132812 74.210938 273.554688 77.199219 273.554688 Z M 82.613281 256.410156 L 102.929688 237.09375 L 119.378906 252.738281 L 108.871094 262.730469 L 82.613281 262.730469 Z M 124.578125 262.730469 L 159.761719 229.277344 L 169.707031 238.722656 L 169.707031 262.730469 Z M 169.707031 175.890625 L 169.707031 223.792969 L 163.484375 217.886719 C 161.394531 215.898438 158.117188 215.902344 156.027344 217.886719 L 127.234375 245.269531 L 106.664062 225.703125 C 104.574219 223.714844 101.292969 223.714844 99.203125 225.703125 L 82.613281 241.476562 L 82.613281 175.890625 Z M 169.707031 175.890625 " fill-opacity="1" fill-rule="nonzero"/><path fill="#ff3131" d="M 107.65625 215.183594 C 116.417969 215.183594 123.542969 208.0625 123.542969 199.304688 C 123.542969 190.5625 116.417969 183.449219 107.65625 183.449219 C 98.886719 183.449219 91.753906 190.5625 91.753906 199.304688 C 91.753906 208.0625 98.886719 215.183594 107.65625 215.183594 Z M 107.65625 194.273438 C 110.449219 194.273438 112.71875 196.53125 112.71875 199.304688 C 112.71875 202.09375 110.449219 204.359375 107.65625 204.359375 C 104.855469 204.359375 102.578125 202.09375 102.578125 199.304688 C 102.578125 196.53125 104.855469 194.273438 107.65625 194.273438 Z M 107.65625 194.273438 " fill-opacity="1" fill-rule="nonzero"/><path fill="#ff3131" d="M 332.84375 297.503906 L 332.84375 141.117188 C 332.84375 138.128906 330.417969 135.707031 327.429688 135.707031 L 46.066406 135.707031 C 43.078125 135.707031 40.65625 138.128906 40.65625 141.117188 L 40.65625 297.503906 C 40.65625 300.492188 43.078125 302.914062 46.066406 302.914062 L 327.429688 302.914062 C 330.417969 302.914062 332.84375 300.492188 332.84375 297.503906 Z M 322.019531 292.089844 L 51.480469 292.089844 L 51.480469 146.53125 L 322.019531 146.53125 Z M 322.019531 292.089844 " fill-opacity="1" fill-rule="nonzero"/><g clip-path="url(#9935b53308)"><path fill="#ff3131" d="M 358.992188 315.65625 L 356.242188 315.65625 L 356.242188 138.039062 C 356.242188 123.757812 344.601562 112.140625 330.292969 112.140625 L 43.203125 112.140625 C 28.882812 112.140625 17.234375 123.757812 17.234375 138.039062 L 17.234375 315.65625 L 14.484375 315.65625 C 7.609375 315.65625 2.015625 321.25 2.015625 328.128906 L 2.015625 356.875 C 2.015625 363.742188 7.609375 369.324219 14.484375 369.324219 L 358.992188 369.324219 C 365.878906 369.324219 371.484375 363.742188 371.484375 356.875 L 371.484375 328.128906 C 371.484375 321.25 365.878906 315.65625 358.992188 315.65625 Z M 28.058594 138.039062 C 28.058594 129.726562 34.851562 122.964844 43.203125 122.964844 L 330.292969 122.964844 C 338.632812 122.964844 345.417969 129.726562 345.417969 138.039062 L 345.417969 315.65625 L 28.058594 315.65625 Z M 153.367188 326.480469 L 220.128906 326.480469 L 220.128906 330.1875 C 220.128906 332.234375 218.457031 333.894531 216.398438 333.894531 L 157.078125 333.894531 C 155.066406 333.894531 153.367188 332.199219 153.367188 330.1875 Z M 360.660156 356.875 C 360.660156 357.757812 359.894531 358.5 358.992188 358.5 L 14.484375 358.5 C 13.589844 358.5 12.839844 357.757812 12.839844 356.875 L 12.839844 328.128906 C 12.839844 327.234375 13.589844 326.480469 14.484375 326.480469 L 142.542969 326.480469 L 142.542969 330.1875 C 142.542969 338.203125 149.0625 344.71875 157.078125 344.71875 L 216.398438 344.71875 C 224.425781 344.71875 230.953125 338.203125 230.953125 330.1875 L 230.953125 326.480469 L 358.992188 326.480469 C 359.894531 326.480469 360.660156 327.234375 360.660156 328.128906 Z M 360.660156 356.875 " fill-opacity="1" fill-rule="nonzero"/></g><g clip-path="url(#15c1b027a6)"><g clip-path="url(#9aa545929f)"><g clip-path="url(#3fcab25507)"><path fill="#ff3131" d="M 307.335938 67 L 195.171875 52.621094 C 193.347656 52.386719 191.683594 53.671875 191.449219 55.496094 L 189.757812 68.6875 C 189.523438 70.511719 190.808594 72.175781 192.632812 72.410156 L 304.800781 86.789062 C 305.675781 86.902344 306.554688 86.664062 307.257812 86.125 C 307.957031 85.582031 308.410156 84.789062 308.519531 83.914062 L 310.210938 70.722656 C 310.324219 69.84375 310.085938 68.964844 309.546875 68.265625 C 309.003906 67.566406 308.210938 67.113281 307.335938 67 Z M 302.347656 79.773438 L 196.78125 66.238281 L 197.625 59.640625 L 303.195312 73.175781 Z M 302.347656 79.773438 " fill-opacity="1" fill-rule="nonzero"/></g></g></g><g clip-path="url(#e629ba4a4e)"><g clip-path="url(#0615640638)"><g clip-path="url(#323f5e0b6d)"><path fill="#ff3131" d="M 175.296875 69.207031 C 175.972656 68.6875 176.445312 67.910156 176.5625 67 L 178.253906 53.804688 C 178.488281 51.980469 177.203125 50.320312 175.378906 50.085938 L 162.183594 48.390625 C 161.304688 48.277344 160.421875 48.519531 159.726562 49.058594 C 159.027344 49.597656 158.570312 50.390625 158.460938 51.265625 L 156.769531 64.464844 C 156.65625 65.34375 156.898438 66.222656 157.4375 66.921875 C 157.972656 67.617188 158.769531 68.078125 159.644531 68.1875 L 172.839844 69.875 C 173.753906 69.988281 174.625 69.730469 175.296875 69.207031 Z M 164.636719 55.410156 L 171.234375 56.257812 L 170.386719 62.855469 L 163.789062 62.011719 Z M 164.636719 55.410156 " fill-opacity="1" fill-rule="nonzero"/></g></g></g><g clip-path="url(#527d82242b)"><g clip-path="url(#6b9b1f9180)"><g clip-path="url(#186d49e414)"><path fill="#ff3131" d="M 160.832031 85.105469 L 159.140625 98.300781 C 158.90625 100.125 160.195312 101.789062 162.015625 102.023438 C 162.925781 102.136719 163.800781 101.875 164.472656 101.355469 C 165.148438 100.835938 165.621094 100.054688 165.738281 99.144531 L 167.425781 85.949219 C 167.660156 84.125 166.375 82.460938 164.550781 82.226562 C 162.730469 81.992188 161.0625 83.28125 160.832031 85.105469 Z M 160.832031 85.105469 " fill-opacity="1" fill-rule="nonzero"/></g></g></g><g clip-path="url(#19d5be7ced)"><g clip-path="url(#ef4d95fb54)"><g clip-path="url(#7521deecee)"><path fill="#ff3131" d="M 172.929688 35.375 C 173.601562 34.851562 174.078125 34.074219 174.195312 33.164062 L 175.886719 19.96875 C 176.125 18.148438 174.835938 16.480469 173.011719 16.246094 C 171.1875 16.015625 169.527344 17.300781 169.292969 19.125 L 167.597656 32.320312 C 167.363281 34.140625 168.648438 35.808594 170.472656 36.039062 C 171.382812 36.15625 172.257812 35.894531 172.929688 35.375 Z M 172.929688 35.375 " fill-opacity="1" fill-rule="nonzero"/></g></g></g><g clip-path="url(#5e935184cf)"><g clip-path="url(#197d8dbe6e)"><g clip-path="url(#580e7a734e)"><path fill="#ff3131" d="M 128.347656 50.757812 C 126.523438 50.523438 124.859375 51.808594 124.625 53.632812 C 124.390625 55.457031 125.675781 57.121094 127.5 57.355469 L 140.695312 59.046875 C 141.605469 59.164062 142.476562 58.902344 143.152344 58.378906 C 143.824219 57.859375 144.300781 57.082031 144.417969 56.171875 C 144.652344 54.347656 143.367188 52.683594 141.542969 52.449219 Z M 128.347656 50.757812 " fill-opacity="1" fill-rule="nonzero"/></g></g></g><g clip-path="url(#a88ca59ce7)"><g clip-path="url(#06ff87fe93)"><g clip-path="url(#d1de833eeb)"><path fill="#ff3131" d="M 149.089844 73.371094 C 147.96875 71.917969 145.878906 71.648438 144.425781 72.773438 L 133.894531 80.910156 C 132.441406 82.03125 132.175781 84.121094 133.296875 85.574219 C 134.417969 87.027344 136.507812 87.292969 137.960938 86.171875 L 148.492188 78.035156 C 149.949219 76.910156 150.210938 74.824219 149.089844 73.371094 Z M 149.089844 73.371094 " fill-opacity="1" fill-rule="nonzero"/></g></g></g><g clip-path="url(#d2fc097cca)"><g clip-path="url(#29453cf87d)"><g clip-path="url(#fe02a2d8bb)"><path fill="#ff3131" d="M 185.933594 44.894531 C 187.054688 46.347656 189.144531 46.617188 190.597656 45.496094 L 201.121094 37.363281 C 202.574219 36.238281 202.84375 34.148438 201.722656 32.695312 C 200.597656 31.242188 198.511719 30.972656 197.054688 32.097656 L 186.53125 40.230469 C 185.078125 41.351562 184.808594 43.445312 185.933594 44.894531 Z M 185.933594 44.894531 " fill-opacity="1" fill-rule="nonzero"/></g></g></g><g clip-path="url(#70ff6e9f20)"><g clip-path="url(#c1524c0f0c)"><g clip-path="url(#db6fd71a0b)"><path fill="#ff3131" d="M 153.273438 40.710938 C 154.726562 39.585938 154.996094 37.496094 153.875 36.042969 L 145.738281 25.515625 C 144.617188 24.0625 142.527344 23.796875 141.074219 24.917969 C 139.621094 26.042969 139.351562 28.132812 140.476562 29.585938 L 148.609375 40.113281 C 149.734375 41.566406 151.824219 41.832031 153.273438 40.710938 Z M 153.273438 40.710938 " fill-opacity="1" fill-rule="nonzero"/></g></g></g><g clip-path="url(#4af8984cdb)"><g clip-path="url(#e7cbfb6be1)"><g clip-path="url(#98e6fc1322)"><path fill="#ff3131" d="M 181.746094 77.554688 C 180.292969 78.675781 180.023438 80.765625 181.148438 82.21875 L 189.28125 92.746094 C 190.40625 94.203125 192.496094 94.46875 193.949219 93.34375 C 195.402344 92.222656 195.671875 90.132812 194.546875 88.679688 L 186.410156 78.152344 C 185.289062 76.699219 183.203125 76.429688 181.746094 77.554688 Z M 181.746094 77.554688 " fill-opacity="1" fill-rule="nonzero"/></g></g></g></svg>